# xmcd
#
# Track frame offsets: 
#        150
#        15654
#        31151
#        46610
#
# Disc length: 634 seconds
#
# Revision: 0
# Processed by: cddbd v1.5.2PL0 Copyright (c) Steve Scherf et al.
# Submitted via: ExactAudioCopy v0.99pb4
#
DISCID=1f027804
DTITLE=Shawnna - Gettin' Some [CDS)
DYEAR=2006
DGENRE=Hip-Hop
TTITLE0=Gettin' Some (Clean)
TTITLE1=Gettin' Some
TTITLE2=Gettin' Some (Instrumental)
TTITLE3=Gettin' Some (Call Out)
EXTD=
EXTT0=
EXTT1=
EXTT2=
EXTT3=
PLAYORDER=
